<?xml version="1.0" encoding="iso-8859-1"?>
<!-- Generator: Adobe Illustrator 16.0.0, SVG Export Plug-In . SVG Version: 6.00 Build 0)  -->
<!DOCTYPE svg PUBLIC "-//W3C//DTD SVG 1.1//EN" "http://www.w3.org/Graphics/SVG/1.1/DTD/svg11.dtd">
<svg version="1.1" id="Capa_1" xmlns="http://www.w3.org/2000/svg" xmlns:xlink="http://www.w3.org/1999/xlink" x="0px" y="0px"
	 width="585.994px" height="585.994px" viewBox="0 0 585.994 585.994" style="enable-background:new 0 0 585.994 585.994;"
	 xml:space="preserve">
<g>
	<g>
		<path d="M567.345,207.173c0,0,3.271-5.353,3.773-7.365c0.502-2.011,0.253-3.146-0.755-3.774s-13.333,4.904-13.333,4.904
			s1.383-10.188-5.03-8.05c-6.414,2.138-15.097,8.303-15.097,8.303s-47.046-11.53-60.963-14.549
			c-13.921-3.019-26.667-3.354-46.125,4.696c-19.453,8.05-52.999,12.044-64.402,20.783c0,0-10.734-0.293-23.48,3.889
			c-12.746,4.178-75.811,15.247-85.872,14.912c-10.061-0.335-19.119,7.523-58.703-11.334c-39.58-18.858-35.892-10.47-91.576-25.231
			c-55.68-14.757-87.549,3.019-100.964,32.204c-13.415,29.184,3.709,26.414,20.461,0.922c0,0,22.473-36.479,75.811-11.657
			c53.333,24.823,104.99,23.146,87.548,44.95s-21.803,44.276-35.892,46.961s-19.119,8.384-30.861,7.046
			c-11.742-1.343-13.419,6.707-15.43,13.754c-2.012,7.046-5.031,19.792-3.354,24.822c1.677,5.031-0.237,26.834,5.585,33.542
			c5.822,6.707,8.168,3.688,8.168,3.688s1.007,13.419,10.734,8.384c0,0,15.431,9.393,9.392-9.392c0,0,11.742,7.046,12.411,4.696
			c0.669-2.351-3.186-8.552-5.953-10.062c-2.766-1.51-5.031-8.303-11.824-9.058c0,0,1.008-16.353,1.008-20.127
			c0-3.773,3.774-2.767,5.786-3.02c2.011-0.253,8.804-4.528,8.804-4.528s52.077,3.774,69.687-13.835s46.793-20.882,46.793-20.882
			s40,9.307,55.346-1.51c0,0,59.119,12.077,107.675-20.628c0,0,19.372,15.851,24.904,17.862c5.537,2.011,11.069,13.08,4.782,17.107
			c-6.292,4.026-11.322,14.088-8.805,16.1c0,0-3.774,9.058,2.766,10.566c0,0,6.541,8.304,11.824,0.502c0,0,6.793-1.509,10.567-9.56
			c3.773-8.05,6.54-3.271,7.295-10.566c0,0,7.295-15.275,3.521-28.393c0,0,7.047-1.294,10.567,3.488
			c3.521,4.781,6.039,0,9.812,5.785c3.774,5.785,12.832,14.088,16.353,13.586c3.521-0.501,8.552,4.276,11.322-0.754
			c2.771-5.031,11.322-4.276,9.307-11.322c0,0,5.03-7.548-3.02-9.56s4.529-14.088-18.617-14.088c0,0-3.773-0.755-6.038-4.529
			s-23.647-18.364-29.434-19.119c0,0,15.852-21.889,35.223-16.1c19.372,5.786,24.15,8.552,31.449,9.058
			c7.295,0.502,13.586,15.852,24.904,2.767c0,0,6.54-3.02,6.291-5.785c0,0,3.774-3.272,4.276-5.786
			c0.502-2.517-5.786-10.815-6.038-15.345C579.67,232.012,583.444,225.859,567.345,207.173z"/>
	</g>
</g>
<g>
</g>
<g>
</g>
<g>
</g>
<g>
</g>
<g>
</g>
<g>
</g>
<g>
</g>
<g>
</g>
<g>
</g>
<g>
</g>
<g>
</g>
<g>
</g>
<g>
</g>
<g>
</g>
<g>
</g>
</svg>
