<svg height="512pt" viewBox="0 0 512 512" width="512pt" xmlns="http://www.w3.org/2000/svg"><path d="m495.917969 217.066406-203.714844-203.714844c-8.855469-8.859374-17.90625-13.351562-26.894531-13.351562-12.472656 0-27.039063 9.347656-27.039063 35.683594v125.605468c-62.179687 4.234376-120.03125 30.65625-164.234375 75.320313-47.742187 48.238281-74.035156 112.183594-74.035156 180.054687 0 29.234376 4.90625 57.945313 14.589844 85.335938 2.117187 5.992188 7.785156 10 14.140625 10 6.359375 0 12.023437-4.007812 14.144531-10 29.78125-84.257812 107.136719-142.988281 195.394531-149.960938v124.273438c0 26.335938 14.5625 35.683594 27.039063 35.683594 8.988281 0 18.035156-4.488282 26.890625-13.34375l203.722656-203.722656c10.367187-10.371094 16.078125-24.195313 16.078125-38.933594-.003906-14.734375-5.714844-28.5625-16.082031-38.929688zm-21.210938 56.652344-203.71875 203.722656c-.960937.957032-1.816406 1.722656-2.558593 2.328125-.101563-.953125-.164063-2.097656-.164063-3.453125v-139.960937c0-4.003907-1.601563-7.847657-4.453125-10.664063-2.808594-2.777344-6.597656-4.335937-10.546875-4.335937-.054687 0-.109375.003906-.164063.003906-53.421874.59375-104.4375 17.480469-147.53125 48.828125-30.1875 21.960938-54.878906 49.765625-72.832031 81.75-1.820312-11.613281-2.738281-23.390625-2.738281-35.273438 0-123.226562 100.230469-224.59375 223.433594-225.964843 8.21875-.089844 14.835937-6.777344 14.835937-15v-140.015625c0-1.355469.0625-2.496094.160157-3.453125.742187.605469 1.597656 1.371093 2.558593 2.332031l203.71875 203.71875c4.703125 4.703125 7.292969 10.992188 7.292969 17.71875-.003906 6.722656-2.59375 13.015625-7.292969 17.71875zm0 0"/></svg>